<?xml version="1.0" encoding="UTF-8"?> <!-- Creator: CorelDRAW 2019 (64 Bit) --> <svg xmlns="http://www.w3.org/2000/svg" xmlns:xlink="http://www.w3.org/1999/xlink" xml:space="preserve" width="600px" height="340px" version="1.1" style="shape-rendering:geometricPrecision; text-rendering:geometricPrecision; image-rendering:optimizeQuality; fill-rule:evenodd; clip-rule:evenodd" viewBox="0 0 600 340"> <defs> <style type="text/css"> <![CDATA[ .fil0 {fill:#31487E} .fil3 {fill:#F8F8F6} .fil1 {fill:#FAF6F5} .fil2 {fill:#FBF7F4} ]]> </style> </defs> <g id="Camada_x0020_1"> <metadata id="CorelCorpID_0Corel-Layer"></metadata> <rect class="fil0" width="600" height="340"></rect> <g id="_2741822056960"> <path class="fil1" d="M290.7 145.88l0.76 36.93 15.17 -6.53 0.75 -21.11c2.18,-0.22 10.05,5.59 11.57,6.88 5.29,4.48 4.34,7.28 -1.15,10.97 -14.59,9.81 -45.68,14.63 -43.46,33.62 0.89,7.53 6.98,12.84 12.26,16.65 1.9,1.37 3.97,2.43 6.04,3.84l0.6 17.31 10.8 -2.55 0.47 -8.36c2.96,1.11 10.15,5.11 11.07,7.58 -12.22,5.18 -40.74,4.77 -36.5,22.91 1.64,7.07 8.82,13.69 13.27,16.89 3.95,2.83 2.69,2.91 3.58,11.55 0.38,3.78 0.49,10.5 2.95,12.54 0.91,-0.63 0.97,-0.23 1.66,-3.48 0.92,-4.33 1.16,-9.52 1.6,-13.97 3.13,0.69 7.3,4.37 12.4,5.15 -1.55,-3.29 -11.34,-8.21 -12.01,-10.13l1.2 -27.5 -10.01 1.87 0.88 18.69c-2.2,-1.53 -14.34,-13.7 -5.68,-18.54 5.67,-3.17 17.7,-3.81 24.9,-5.73 10.69,-2.84 14.8,-9.81 9.16,-17.03 -3.31,-4.24 -11.8,-9.65 -18.02,-12.59l0.91 -27.59c-4.67,1.29 -9.89,4.59 -13.91,6.42l0.33 12.7c-1.8,-0.81 -3.92,-3 -5.17,-4.73 -9.56,-13.17 41.4,-16.52 47.2,-37.5 1.75,-6.34 -0.77,-11.26 -3.68,-15.07 -2.53,-3.34 -6.53,-6.02 -10.6,-8.81l-12.09 -7.28 0.62 -46.85c-7.12,1.94 -13.79,5.9 -18.14,9.44l0.03 26.73c-1.36,-0.61 -0.15,0.03 -1.56,-0.91 -0.45,-0.31 -0.8,-0.57 -1.22,-0.93 -2.08,-1.77 -4.8,-4.37 -6.12,-6.81 -3.66,-6.75 1.27,-13.9 5.61,-17.8 1.12,-1 3.2,-2.7 4.84,-3.79 3.35,-2.25 7.44,-4.18 11.71,-5.96 4.6,-1.92 8.08,-3.3 13.69,-3.62 4.36,-0.26 11.86,-0.7 13.77,-3.87 2.42,-4.02 -10.09,-12.81 -22.58,-9.18 -12.29,3.57 -34.78,15.89 -41.02,28.37 -4.55,9.12 -2.42,19.72 3.11,26.3 2.28,2.71 5.91,6.07 9,8.24 2.45,1.72 7.91,5.46 11.01,6.64z"></path> <path class="fil2" d="M295.98 35.47c-19.25,4.4 -12.69,33.81 6.73,29.37 19.3,-4.4 13.11,-33.89 -6.73,-29.37z"></path> <path class="fil3" d="M290.75 81.51c2.69,-0.82 5.59,-2.75 8.29,-3.97 3.02,-1.37 5.4,-2.24 8.61,-3.46l-0.09 -4.91c-13.41,3.52 -11.2,0 -16.21,0.24l-0.6 12.1z"></path> </g> </g> </svg> 